<?xml version="1.0" standalone="no"?>
<!DOCTYPE svg PUBLIC "-//W3C//DTD SVG 20010904//EN"
 "http://www.w3.org/TR/2001/REC-SVG-20010904/DTD/svg10.dtd">
<svg version="1.0" xmlns="http://www.w3.org/2000/svg"
 width="959.000000pt" height="959.000000pt" viewBox="0 0 959.000000 959.000000"
 preserveAspectRatio="xMidYMid meet">

<g transform="translate(0.000000,959.000000) scale(0.100000,-0.100000)"
fill="#000000" stroke="none">
<path d="M2733 9513 c-13 -2 -23 -10 -23 -17 0 -8 -47 -29 -116 -51 -66 -22
-127 -48 -142 -62 -14 -12 -37 -23 -52 -23 -19 0 -49 -20 -103 -67 -70 -63
-92 -93 -67 -93 20 0 9 -15 -25 -38 -21 -13 -35 -30 -35 -42 0 -12 -18 -38
-39 -59 -40 -40 -67 -104 -55 -135 3 -9 2 -16 -3 -16 -14 0 -44 -70 -49 -113
-2 -22 -9 -46 -15 -53 -6 -8 -12 -45 -13 -83 -1 -42 -6 -74 -15 -85 -15 -17
-19 -47 -29 -186 -2 -41 -7 -100 -9 -130 -7 -90 -6 -112 5 -175 7 -37 8 -61 2
-65 -12 -8 -7 -115 7 -132 6 -7 10 -40 8 -73 -1 -33 2 -69 8 -80 6 -11 10 -28
8 -38 -1 -10 3 -24 9 -32 6 -7 13 -38 16 -70 3 -31 16 -76 30 -102 13 -25 24
-61 24 -80 0 -26 5 -36 20 -40 11 -3 20 -13 20 -22 0 -35 33 -117 54 -136 12
-11 31 -46 42 -79 13 -40 26 -62 42 -69 12 -6 22 -17 22 -26 0 -9 7 -29 15
-45 21 -41 19 -55 -12 -67 -26 -10 -27 -11 -10 -24 18 -13 16 -15 -20 -34 -45
-22 -59 -37 -65 -66 -2 -11 -23 -30 -46 -44 -50 -27 -105 -97 -98 -124 3 -12
-3 -21 -18 -27 -27 -10 -75 -70 -100 -124 -10 -21 -34 -54 -52 -73 -19 -18
-34 -42 -34 -53 0 -11 -18 -43 -39 -72 -22 -29 -56 -84 -76 -123 -21 -38 -44
-78 -52 -87 -8 -9 -13 -23 -11 -30 5 -13 -58 -144 -73 -154 -5 -3 -9 -18 -9
-34 0 -15 -4 -30 -8 -32 -4 -1 -18 -23 -31 -48 -12 -25 -35 -70 -50 -100 -19
-37 -25 -59 -19 -67 6 -8 3 -18 -11 -32 -12 -12 -21 -32 -21 -45 0 -13 -9 -35
-20 -49 -11 -14 -20 -35 -20 -46 0 -12 -4 -29 -9 -39 -18 -33 -40 -107 -40
-132 1 -42 -40 -200 -57 -221 -6 -8 -15 -36 -19 -64 -4 -27 -11 -55 -16 -61
-11 -13 -29 -169 -22 -195 3 -11 -2 -28 -12 -39 -17 -18 -17 -21 -2 -38 11
-12 13 -22 7 -32 -5 -8 -10 -29 -10 -47 0 -17 -4 -33 -9 -35 -20 -7 -13 -290
8 -311 18 -18 13 -37 -11 -37 -41 0 -68 12 -68 29 0 9 -34 41 -75 70 -41 30
-75 58 -75 63 0 4 -17 16 -38 27 -20 11 -52 34 -70 52 -19 17 -50 41 -71 53
-83 48 -105 62 -135 87 -17 14 -38 29 -46 32 -8 4 -34 20 -57 35 -112 73 -214
131 -249 142 -22 7 -41 16 -44 20 -8 10 -156 70 -174 70 -17 0 -21 -17 -8 -36
4 -7 30 -24 57 -39 28 -15 59 -35 70 -44 11 -10 34 -23 50 -30 32 -13 98 -55
130 -82 11 -9 31 -20 45 -24 13 -4 33 -18 43 -31 10 -13 40 -36 65 -51 26 -14
61 -39 77 -54 17 -15 49 -36 72 -47 24 -10 53 -29 65 -41 47 -46 132 -121 139
-121 3 0 20 -14 38 -30 17 -17 43 -35 56 -40 23 -9 36 -40 17 -40 -4 0 -35
-18 -68 -39 -59 -39 -136 -111 -118 -111 5 0 -8 -16 -28 -35 -21 -18 -38 -40
-38 -48 0 -8 -7 -20 -15 -27 -13 -10 -23 -9 -58 5 -23 10 -47 25 -53 32 -6 7
-34 20 -62 28 -28 9 -55 22 -59 29 -4 7 -37 24 -73 36 -36 13 -70 27 -77 32
-6 5 -41 17 -78 28 -37 11 -72 26 -79 34 -10 14 -148 56 -183 56 -8 0 -13 -12
-13 -34 0 -30 4 -35 30 -41 17 -4 45 -14 63 -22 17 -9 52 -25 77 -37 25 -11
65 -32 90 -46 25 -14 72 -36 105 -49 33 -13 69 -32 80 -41 11 -9 61 -39 112
-66 109 -58 121 -73 97 -129 -21 -51 -43 -153 -37 -175 3 -10 0 -21 -6 -24 -8
-5 -8 -13 0 -28 8 -14 8 -23 0 -31 -14 -14 -14 -54 -1 -62 5 -3 9 -44 9 -91 0
-48 5 -91 11 -99 6 -7 12 -38 13 -70 1 -31 7 -59 12 -63 24 -17 41 -54 50
-105 4 -24 18 -50 40 -72 19 -19 35 -42 35 -51 0 -31 32 -84 51 -84 11 0 16
-5 13 -13 -8 -21 38 -81 79 -100 21 -11 39 -28 43 -41 9 -38 104 -123 174
-157 59 -28 72 -31 134 -26 68 4 69 4 79 -24 6 -15 20 -32 32 -37 12 -6 35
-39 52 -73 17 -35 42 -75 57 -88 14 -14 26 -32 26 -42 0 -10 12 -21 30 -28 23
-8 30 -16 30 -36 0 -18 6 -29 20 -32 10 -3 22 -14 25 -24 4 -10 12 -19 19 -19
7 0 20 -8 30 -19 21 -23 6 -38 -45 -47 -19 -4 -43 -15 -54 -24 -11 -10 -36
-21 -55 -25 -19 -4 -55 -18 -80 -31 -25 -13 -78 -37 -117 -55 -40 -18 -73 -36
-73 -40 0 -17 -37 -46 -66 -53 -37 -9 -164 -93 -165 -109 0 -7 -19 -27 -42
-45 -88 -68 -117 -95 -117 -107 0 -12 -87 -95 -100 -95 -4 0 -31 -32 -59 -70
-29 -39 -61 -75 -72 -80 -10 -6 -19 -20 -19 -31 0 -12 -10 -23 -25 -29 -13 -5
-32 -26 -43 -47 -26 -54 -45 -86 -58 -98 -7 -5 -15 -23 -18 -38 -4 -16 -17
-33 -31 -39 -14 -6 -25 -19 -25 -28 0 -9 -3 -20 -8 -24 -4 -4 -7 -11 -7 -14 0
-4 -11 -29 -24 -57 -12 -27 -27 -59 -31 -70 -5 -11 -18 -42 -29 -68 -11 -27
-20 -58 -19 -70 1 -12 -6 -46 -15 -76 -13 -42 -14 -57 -5 -62 9 -6 9 -14 1
-31 -6 -13 -16 -47 -22 -77 -10 -45 -9 -57 4 -71 17 -19 20 -56 4 -66 -6 -3
-8 -16 -5 -27 3 -12 0 -27 -6 -34 -8 -10 -8 -20 0 -38 7 -16 8 -35 1 -57 -19
-68 -18 -68 80 -68 l88 0 -2 83 c-1 46 -6 94 -10 106 -4 15 -3 26 5 31 9 6 9
12 -1 28 -11 18 -11 24 3 39 12 13 18 41 19 97 2 53 7 80 16 83 7 3 13 21 13
42 0 50 61 230 89 265 5 6 14 30 20 54 7 23 16 42 21 42 6 0 10 6 10 13 0 7 9
20 20 30 11 9 20 23 20 31 0 8 13 29 30 47 16 18 27 36 24 41 -3 4 2 11 10 14
9 3 16 14 16 24 0 21 23 43 35 32 5 -4 5 -2 2 4 -4 6 5 20 19 30 54 38 84 66
84 76 0 6 11 19 24 29 14 11 28 28 31 39 4 11 12 20 18 20 15 0 31 18 75 83
18 26 40 47 48 47 8 0 12 5 9 10 -4 6 6 10 23 10 17 0 36 9 49 23 40 45 126
117 140 117 16 0 50 18 78 42 11 9 40 26 65 38 25 12 65 32 89 45 24 14 49 25
54 25 6 0 38 13 71 29 34 16 73 32 88 35 15 3 38 17 52 31 29 29 46 32 46 9 0
-20 79 -93 100 -94 19 0 100 -51 100 -62 0 -14 85 -88 109 -94 13 -4 31 -13
40 -21 25 -23 124 -83 137 -83 6 0 19 -9 29 -19 9 -11 36 -30 59 -42 108 -56
157 -79 183 -85 15 -4 35 -13 43 -20 27 -23 174 -74 256 -89 43 -8 108 -21
144 -30 107 -27 313 -56 349 -50 31 6 219 -31 231 -45 13 -15 75 -29 178 -41
198 -21 865 -15 895 9 19 14 147 32 234 32 43 0 94 5 113 10 41 11 91 18 138
19 19 1 32 6 32 14 0 12 132 39 189 37 14 0 72 16 130 36 157 53 164 56 150
64 -8 6 -5 11 10 19 11 7 21 8 21 3 0 -12 38 -22 56 -15 8 3 13 12 12 21 -2
12 11 19 52 28 30 7 56 18 58 23 2 6 9 11 15 11 7 0 39 14 72 30 33 16 74 30
91 30 18 0 54 16 92 40 33 22 65 40 70 40 14 0 62 45 62 58 0 7 9 12 20 12 19
0 21 -5 17 -62 -3 -35 -1 -70 4 -79 5 -9 4 -31 -1 -49 -6 -21 -6 -38 0 -45 5
-6 11 -39 13 -73 2 -34 6 -65 10 -68 4 -4 7 -18 7 -30 0 -13 5 -26 10 -29 6
-3 10 -20 10 -37 0 -36 40 -158 52 -158 4 0 8 -9 8 -19 0 -11 5 -23 10 -26 6
-3 10 -15 10 -25 0 -10 26 -72 58 -137 33 -65 72 -155 88 -200 16 -46 34 -83
41 -83 7 0 13 -7 13 -15 0 -40 24 -118 42 -134 15 -15 19 -32 19 -77 0 -33 6
-68 13 -79 7 -11 16 -47 20 -79 12 -90 6 -86 112 -86 52 0 94 3 94 8 0 4 -7
26 -15 49 -8 23 -16 56 -17 74 -1 17 -10 36 -19 42 -12 8 -15 20 -11 52 4 43
-13 102 -58 193 -11 23 -18 47 -15 51 6 11 -29 96 -44 106 -6 3 -10 18 -9 33
2 37 -10 71 -38 109 -13 17 -24 38 -24 46 0 13 -19 58 -41 99 -5 10 -9 25 -9
33 0 9 -12 28 -27 42 -18 19 -26 37 -25 59 1 18 -5 38 -13 44 -8 7 -15 24 -15
38 0 14 -9 35 -19 46 -13 14 -23 46 -29 96 -6 41 -13 89 -17 105 -4 17 -8 42
-9 56 0 14 -7 33 -14 42 -7 8 -9 17 -4 19 12 4 22 238 11 259 -6 12 -2 22 12
35 12 11 23 17 25 14 5 -8 113 84 114 98 0 7 11 18 25 24 23 10 29 8 63 -25
24 -23 53 -39 81 -46 43 -9 61 -23 61 -48 0 -6 15 -13 33 -15 22 -2 35 -10 42
-25 5 -13 26 -30 45 -39 48 -23 111 -74 104 -85 -6 -10 43 -59 59 -59 8 0 38
-30 106 -105 41 -46 121 -153 121 -163 0 -5 7 -12 15 -16 8 -3 20 -17 25 -31
5 -14 16 -25 25 -25 8 0 15 -8 15 -17 0 -28 37 -82 65 -95 17 -8 25 -19 25
-37 0 -14 9 -39 20 -56 11 -16 20 -38 20 -47 0 -10 11 -25 25 -34 18 -12 25
-25 25 -50 0 -18 5 -36 10 -39 6 -3 10 -15 10 -26 0 -11 7 -22 15 -25 8 -4 15
-15 15 -25 0 -11 7 -22 15 -25 8 -4 12 -10 9 -15 -8 -14 16 -90 31 -95 16 -7
32 -45 40 -101 4 -24 11 -45 16 -49 5 -3 9 -20 9 -37 0 -49 10 -75 30 -80 13
-3 18 -18 22 -64 2 -32 14 -79 26 -103 14 -28 18 -48 12 -55 -12 -14 -2 -52
16 -59 8 -3 14 -17 14 -31 0 -25 1 -25 80 -25 l80 0 -6 29 c-4 17 -1 32 6 36
8 5 7 12 -5 25 -10 11 -19 44 -22 82 -4 34 -17 87 -30 117 -13 30 -23 64 -21
76 1 12 -4 32 -13 46 -9 13 -19 42 -23 64 -4 22 -14 47 -22 56 -9 9 -16 29
-18 43 -2 15 -8 32 -14 38 -7 7 -12 27 -12 44 0 18 -5 36 -11 39 -10 7 -31 49
-34 70 -3 19 -35 84 -44 89 -5 4 -12 24 -16 45 -3 22 -15 47 -26 57 -10 9 -19
25 -19 34 0 9 -11 27 -25 40 -14 13 -25 27 -25 32 0 5 -9 18 -20 30 -11 12
-20 33 -20 46 0 13 -16 43 -35 66 -19 24 -35 46 -35 50 0 4 -9 16 -20 28 -11
12 -20 27 -20 34 0 6 -7 14 -15 18 -8 3 -15 13 -15 21 0 19 -51 83 -132 166
-32 32 -58 63 -58 68 0 5 -13 14 -29 19 -16 6 -35 21 -42 34 -12 24 -58 67
-72 68 -4 0 -30 18 -57 39 -28 22 -59 42 -69 46 -12 4 -17 12 -14 24 4 15 -7
25 -45 44 -27 14 -64 28 -82 32 -18 4 -34 15 -37 24 -2 9 -31 31 -64 50 -32
19 -59 37 -59 40 0 3 13 13 29 23 16 9 40 32 53 51 13 19 36 51 52 72 23 28
27 38 16 45 -9 6 -7 9 8 14 12 4 23 19 27 36 5 25 12 30 36 30 21 0 29 -5 29
-17 0 -10 21 -37 46 -60 38 -36 52 -43 86 -43 31 0 41 -4 45 -19 5 -21 22 -30
103 -59 30 -11 75 -30 100 -41 25 -11 61 -21 80 -21 20 0 46 -7 58 -16 29 -20
280 -30 367 -15 33 6 89 16 125 22 36 6 79 17 95 24 17 7 50 16 75 20 29 3 64
18 94 40 26 18 62 37 79 41 46 9 72 25 59 33 -7 4 14 19 48 34 33 16 60 32 60
36 0 5 18 21 40 36 22 15 40 33 40 39 0 7 16 18 35 25 19 7 35 17 35 23 0 6
34 43 75 82 41 39 75 78 75 86 0 20 58 90 73 90 14 0 54 71 66 116 4 18 15 30
28 32 20 3 55 67 68 125 3 15 12 27 20 27 16 0 38 34 28 44 -3 3 2 15 12 27
17 17 17 22 5 29 -12 8 -10 14 12 32 15 13 37 49 48 80 12 32 26 60 31 64 18
11 50 96 65 174 17 83 30 116 57 143 11 12 16 26 12 38 -4 12 -2 19 7 19 17 0
68 163 68 218 0 32 5 44 21 53 18 9 20 17 15 48 -4 27 0 47 14 74 11 20 17 42
15 49 -3 7 4 31 15 53 11 21 20 52 20 67 0 15 5 30 10 33 6 4 8 16 4 27 -6 19
3 45 30 93 8 14 12 232 13 765 2 632 1 741 -11 720 -7 -14 -14 -41 -15 -60 -2
-39 -2 -35 1 -110 2 -30 -2 -66 -8 -80 -7 -14 -15 -68 -18 -120 -9 -139 -23
-281 -31 -312 -4 -17 -3 -28 3 -28 7 0 7 -10 2 -27 -38 -119 -39 -127 -24
-144 17 -18 12 -53 -14 -104 -9 -16 -15 -44 -14 -61 2 -17 -7 -53 -18 -78 -11
-26 -20 -62 -20 -80 0 -18 -5 -48 -11 -65 -8 -22 -8 -36 -1 -43 7 -7 6 -18 -3
-36 -16 -33 -39 -178 -30 -192 4 -6 -1 -27 -10 -46 -9 -20 -14 -46 -11 -59 3
-12 -3 -49 -14 -81 -11 -33 -20 -73 -20 -90 0 -22 -7 -36 -24 -47 -21 -14 -39
-61 -40 -108 -1 -9 -6 -22 -12 -30 -20 -27 -47 -112 -47 -150 0 -22 -3 -39 -6
-39 -15 0 -34 -48 -32 -81 1 -22 -4 -41 -14 -49 -8 -7 -15 -18 -15 -25 0 -7
-6 -15 -13 -18 -8 -3 -21 -27 -31 -54 -10 -26 -27 -68 -39 -93 -11 -25 -20
-48 -19 -52 1 -4 -14 -37 -33 -74 -19 -37 -32 -71 -29 -76 3 -5 -13 -32 -36
-60 -23 -29 -44 -65 -47 -80 -3 -16 -10 -31 -14 -34 -5 -3 -9 -13 -9 -23 0
-10 -11 -28 -25 -41 -14 -13 -25 -32 -25 -42 0 -10 -28 -48 -62 -84 -34 -36
-68 -78 -74 -92 -14 -32 -53 -70 -109 -105 -22 -14 -58 -43 -80 -66 -21 -23
-45 -41 -52 -41 -8 0 -18 -11 -22 -24 -5 -13 -27 -32 -48 -42 -21 -11 -59 -32
-86 -48 -45 -27 -127 -53 -247 -80 -30 -7 -62 -15 -70 -19 -26 -11 -174 -23
-205 -16 -16 4 -60 7 -97 8 -122 2 -246 39 -433 130 -66 32 -132 61 -148 65
-27 6 -27 7 -12 36 9 17 20 30 26 30 7 0 9 9 6 21 -4 15 1 23 19 31 18 9 24
17 20 31 -6 24 21 66 49 77 21 8 50 69 62 133 3 15 14 32 24 37 10 6 23 29 29
53 6 23 24 74 40 112 16 39 32 87 36 108 3 20 10 37 15 37 5 0 9 19 9 43 0 24
6 49 12 56 7 6 14 16 14 22 1 5 3 10 4 12 1 1 4 22 6 47 3 48 22 118 36 136 4
6 10 40 13 75 3 34 10 78 17 96 9 25 9 41 1 64 -9 23 -9 31 1 35 8 3 12 21 11
50 -1 24 2 47 7 50 5 4 8 44 7 91 -2 61 0 86 10 92 9 6 10 11 2 15 -6 4 -8 24
-5 49 3 23 8 75 11 116 4 61 9 74 24 78 11 3 19 9 19 14 0 5 17 9 39 9 48 0
99 21 94 38 -3 7 5 12 23 12 29 0 134 46 134 58 0 5 15 13 33 20 56 21 181
136 203 187 7 17 24 43 38 58 14 15 26 32 26 37 0 5 11 17 25 26 14 9 25 20
25 24 0 5 15 35 34 68 19 33 37 74 41 91 4 17 10 31 15 31 10 0 46 107 56 165
4 22 13 49 20 60 8 11 14 30 14 42 0 12 7 40 15 61 9 21 20 70 25 108 5 38 12
83 15 99 4 17 7 91 7 165 0 116 -2 140 -19 170 -11 19 -27 36 -36 38 -26 5
-67 -77 -72 -144 -2 -31 -9 -62 -15 -68 -5 -5 -10 -18 -10 -28 0 -10 -9 -32
-20 -50 -11 -18 -20 -38 -20 -45 0 -7 -16 -45 -35 -86 -19 -41 -35 -78 -35
-84 0 -21 -35 -80 -72 -120 -21 -24 -38 -47 -38 -53 0 -15 -26 -40 -40 -40 -7
0 -46 -34 -87 -76 -58 -59 -95 -87 -169 -125 -52 -27 -102 -49 -112 -49 -10 0
-22 -3 -26 -7 -4 -4 -34 -15 -67 -24 -43 -12 -61 -13 -66 -5 -9 14 -15 67 -14
121 1 55 -19 164 -36 198 -7 15 -11 27 -7 27 3 0 -1 12 -11 26 -9 14 -14 32
-11 40 3 8 -1 17 -10 21 -12 4 -14 14 -9 44 4 21 2 46 -4 58 -6 11 -12 33 -14
49 -2 16 -13 44 -24 63 -12 19 -23 51 -26 71 -3 20 -12 45 -22 54 -11 12 -15
26 -11 45 4 19 1 29 -10 33 -9 3 -14 12 -11 20 7 16 -28 92 -56 123 -11 13
-17 29 -13 38 3 9 -10 46 -29 85 -19 38 -35 74 -35 79 0 12 -62 104 -73 109
-4 2 -19 25 -32 52 -13 26 -42 63 -65 81 l-40 34 14 40 c8 22 20 59 27 83 7
24 18 46 26 50 7 4 14 26 16 49 3 24 13 50 26 64 11 12 21 31 21 40 0 10 5 21
10 24 6 3 10 21 10 38 0 18 7 41 15 51 8 11 15 30 15 41 0 12 9 30 20 40 11
10 20 24 20 32 0 8 9 33 19 56 11 24 23 56 27 72 4 17 13 39 20 50 8 11 14 27
14 36 0 9 7 20 15 23 9 3 15 11 14 18 -4 34 2 58 16 58 10 0 15 10 15 29 0 20
8 35 26 48 27 20 52 74 61 131 4 21 11 32 22 32 23 0 41 20 41 46 0 12 6 27
14 33 8 7 12 21 9 32 -4 14 0 22 14 25 11 3 26 18 33 32 7 15 16 35 21 44 5
10 9 25 9 33 0 8 17 32 39 53 42 41 61 71 61 99 0 10 20 36 45 57 25 22 45 48
45 58 0 10 9 23 20 30 11 7 20 20 20 29 0 8 12 26 26 40 14 13 32 39 39 57 9
20 21 32 33 32 19 0 122 109 122 129 0 6 11 13 25 17 27 7 33 20 13 26 -8 3
-3 10 12 18 14 7 35 25 48 41 24 29 58 48 124 69 20 6 39 17 42 25 3 8 25 23
49 34 24 11 50 27 57 36 7 8 19 15 28 15 9 0 27 10 40 23 22 21 31 22 150 20
69 -2 128 -6 131 -11 12 -15 88 -59 153 -87 37 -17 68 -35 68 -41 0 -11 184
-197 200 -202 6 -2 10 -11 10 -21 0 -22 19 -41 42 -41 10 0 18 -7 18 -15 0 -8
4 -15 8 -15 5 0 17 -19 27 -42 10 -24 29 -58 42 -76 13 -17 21 -37 18 -43 -4
-6 3 -21 14 -33 13 -14 19 -29 15 -39 -3 -10 7 -38 27 -69 33 -54 54 -115 69
-201 5 -27 14 -54 19 -61 6 -7 13 -39 17 -72 3 -32 12 -64 20 -70 9 -7 14 -37
15 -88 1 -56 5 -79 17 -85 18 -10 21 -41 26 -259 1 -95 6 -175 9 -179 4 -3 7
220 7 497 0 518 -3 558 -40 587 -8 6 -15 15 -16 20 -2 18 -23 61 -33 68 -6 3
-11 19 -11 36 0 16 -4 29 -9 29 -5 0 -14 13 -19 30 -6 16 -22 41 -36 55 -15
15 -22 31 -19 43 3 12 -6 30 -24 48 -16 16 -43 50 -60 75 -38 55 -99 111 -141
130 -18 8 -32 17 -32 21 0 8 -49 56 -96 96 -15 13 -66 43 -113 67 -47 23 -110
59 -139 78 -45 31 -62 36 -116 38 -35 1 -68 -1 -75 -5 -7 -4 -27 -1 -46 8 -73
35 -377 28 -398 -9 -4 -8 -33 -17 -67 -21 -33 -4 -63 -11 -66 -15 -3 -5 -18
-9 -34 -9 -16 0 -62 -15 -102 -33 -40 -19 -86 -37 -103 -41 -16 -4 -39 -16
-50 -26 -11 -10 -47 -30 -80 -45 -105 -46 -187 -89 -223 -117 -19 -15 -52 -35
-73 -45 -21 -9 -39 -23 -39 -30 0 -7 -7 -13 -16 -13 -35 0 -216 -143 -208
-165 3 -7 -9 -22 -28 -33 -18 -11 -45 -33 -58 -47 -14 -15 -35 -31 -47 -36
-12 -4 -40 -32 -62 -61 -23 -29 -53 -65 -67 -79 -14 -14 -31 -35 -37 -46 -22
-38 -51 -78 -75 -105 -16 -18 -22 -33 -18 -46 5 -15 2 -22 -12 -26 -10 -4 -28
-16 -39 -29 -27 -29 -73 -112 -73 -131 0 -8 -14 -31 -31 -50 -17 -20 -28 -39
-25 -44 3 -5 -2 -18 -12 -28 -65 -72 -91 -112 -85 -133 3 -11 1 -21 -3 -21 -5
0 -15 -12 -21 -27 -7 -16 -31 -48 -53 -73 -22 -25 -43 -54 -46 -65 -14 -45
-24 -44 -75 10 -28 29 -66 61 -84 69 -19 9 -53 36 -77 59 -37 37 -112 93 -180
133 -10 6 -26 18 -36 27 -10 9 -41 21 -67 26 -27 5 -51 14 -53 20 -2 6 -10 11
-17 11 -8 0 -18 7 -22 15 -8 14 -83 45 -110 45 -8 0 -29 6 -46 14 -18 7 -47
19 -65 26 -17 7 -38 24 -45 38 -6 14 -21 30 -32 36 -11 6 -26 19 -33 29 -7 9
-19 17 -26 17 -7 0 -27 18 -44 40 -18 21 -63 59 -100 83 -37 25 -81 58 -98 75
-16 17 -43 34 -60 38 -16 4 -36 13 -44 21 -67 62 -81 73 -93 73 -8 0 -24 12
-38 26 -13 14 -37 32 -54 41 -104 51 -165 92 -165 110 0 8 -17 21 -37 29 -60
24 -86 37 -118 61 -52 38 -221 121 -261 129 -22 4 -45 15 -52 26 -7 10 -17 18
-23 18 -5 0 -51 18 -103 40 -51 22 -102 40 -112 40 -11 1 -35 9 -54 18 -31 15
-35 22 -32 50 2 18 -1 32 -5 32 -5 0 -10 15 -11 32 -2 18 -7 37 -12 42 -6 6
-10 21 -10 34 0 21 -53 147 -81 192 -5 8 -22 42 -38 75 -16 33 -38 69 -50 79
-11 11 -21 25 -21 32 0 7 -9 18 -19 24 -11 5 -29 25 -41 44 -11 19 -30 38 -40
41 -11 4 -20 11 -20 16 0 6 -20 28 -44 51 -26 23 -42 46 -39 54 5 14 -51 54
-78 54 -9 0 -19 9 -22 20 -3 11 -13 23 -24 27 -10 3 -20 9 -23 13 -9 11 -75
48 -100 55 -14 4 -29 14 -35 21 -9 12 -63 20 -153 23 -14 1 -21 5 -16 12 3 6
0 15 -7 20 -14 9 -194 10 -236 2z m312 -206 c97 -37 133 -57 169 -91 22 -20
47 -36 58 -36 10 0 24 -12 31 -27 6 -16 39 -56 72 -91 33 -35 66 -75 73 -88 7
-13 17 -24 22 -24 5 0 16 -16 24 -35 8 -19 19 -35 25 -35 5 0 11 -10 13 -22 2
-13 13 -27 25 -32 16 -7 24 -24 32 -65 6 -31 22 -75 35 -98 13 -23 27 -55 31
-72 l6 -30 -53 21 c-48 18 -118 38 -238 68 -25 6 -54 16 -65 22 -49 27 -268
71 -306 61 -38 -10 -10 -55 44 -68 15 -4 30 -11 33 -16 3 -5 13 -9 22 -9 9 -1
35 -9 57 -20 22 -11 45 -19 52 -20 6 0 54 -20 105 -44 51 -24 111 -46 133 -50
22 -4 76 -24 120 -45 44 -20 95 -44 113 -52 23 -10 32 -19 28 -32 -2 -9 4 -23
14 -30 22 -15 39 -77 37 -135 -1 -27 3 -46 12 -51 9 -6 11 -18 7 -36 l-7 -26
-82 6 c-45 4 -95 8 -112 10 -16 1 -43 8 -60 15 -61 24 -295 40 -660 46 -347 5
-374 4 -430 -14 -44 -14 -61 -25 -63 -40 -6 -36 15 -40 298 -46 124 -3 248 -9
275 -15 28 -5 140 -12 249 -16 109 -3 208 -11 219 -17 11 -5 52 -12 90 -13 47
-2 75 -8 82 -18 6 -8 45 -19 93 -26 103 -15 112 -18 112 -41 0 -11 4 -21 9
-25 6 -3 10 -13 10 -23 2 -106 12 -196 23 -203 8 -6 -2 -9 -27 -9 -28 0 -36 3
-25 9 8 6 18 7 22 5 4 -3 8 -1 8 5 0 13 -60 4 -130 -19 -30 -10 -105 -28 -166
-40 -110 -21 -160 -35 -199 -56 -11 -6 -38 -17 -60 -24 -22 -7 -45 -18 -51
-26 -15 -19 -145 -76 -160 -70 -8 3 -16 1 -19 -4 -4 -6 -15 -10 -25 -10 -10 0
-23 -6 -27 -13 -4 -7 -28 -19 -53 -27 -50 -15 -80 -36 -77 -54 1 -6 -11 -13
-28 -14 -16 -2 -37 -10 -45 -17 -8 -7 -25 -16 -37 -19 -13 -4 -23 -11 -23 -16
0 -5 -25 -20 -56 -35 -39 -18 -54 -31 -52 -43 5 -28 -40 -64 -115 -92 -15 -5
-26 -15 -25 -22 2 -8 -10 -14 -32 -16 -34 -2 -36 0 -63 57 -16 32 -27 65 -26
72 3 17 -7 41 -43 103 -16 27 -26 56 -23 66 3 9 -1 23 -10 30 -8 7 -15 20 -15
29 0 9 -9 29 -20 46 -12 18 -17 38 -14 52 4 13 2 29 -4 36 -5 6 -12 24 -16 40
-3 15 -13 27 -21 27 -18 0 -19 12 -4 27 9 9 9 19 1 40 -7 15 -14 62 -18 103
-3 40 -7 77 -10 81 -2 4 -5 67 -6 141 -1 100 -5 137 -15 150 -9 10 -12 22 -7
30 15 24 23 125 11 144 -4 7 2 47 13 89 11 43 17 88 14 101 -4 13 0 46 9 72 8
26 18 59 21 75 4 15 11 27 16 27 6 0 10 23 10 50 0 36 4 52 15 56 9 4 14 11
13 18 -3 14 21 76 37 96 7 8 16 26 20 40 4 14 18 39 31 57 14 18 27 46 30 62
4 17 15 33 25 36 11 4 19 14 19 23 0 11 14 22 42 30 23 7 58 30 78 50 56 56
78 72 101 72 11 0 29 5 40 11 27 14 208 26 289 18 36 -4 83 -13 105 -22z
m5085 -826 c0 -5 -8 -12 -17 -16 -42 -15 -133 -81 -133 -96 0 -9 -11 -22 -25
-29 -13 -7 -27 -21 -31 -32 -3 -10 -9 -18 -14 -18 -14 0 -90 -73 -90 -87 0 -7
-4 -13 -9 -13 -20 0 -112 -107 -123 -142 -6 -21 -16 -38 -22 -38 -6 0 -4 -5 4
-10 9 -6 10 -10 3 -10 -10 0 -73 -56 -73 -66 0 -5 -30 -43 -60 -73 -14 -14
-25 -30 -26 -36 -2 -25 -25 -63 -54 -90 -17 -16 -40 -49 -51 -72 -10 -23 -24
-45 -30 -48 -6 -4 -24 -37 -42 -74 -17 -36 -44 -83 -60 -103 -15 -21 -27 -46
-25 -55 1 -10 -7 -32 -20 -50 -12 -17 -22 -36 -22 -41 0 -6 -11 -24 -25 -41
-22 -25 -24 -33 -14 -49 9 -15 8 -24 -6 -45 -9 -15 -24 -27 -32 -27 -11 0 -14
-7 -10 -25 3 -18 -1 -29 -14 -36 -11 -5 -19 -21 -19 -34 0 -14 -5 -25 -11 -25
-6 0 -9 -6 -6 -13 3 -8 -8 -28 -25 -46 -22 -24 -28 -38 -24 -55 4 -16 1 -26
-9 -30 -8 -3 -15 -14 -15 -25 0 -11 -8 -26 -18 -33 -9 -7 -18 -28 -19 -47 -1
-19 -7 -37 -14 -41 -6 -4 -8 -13 -5 -19 4 -6 0 -14 -8 -17 -18 -7 -59 -134
-50 -157 3 -10 2 -17 -2 -17 -15 0 -47 -78 -40 -96 4 -10 0 -25 -10 -35 -10
-11 -15 -28 -12 -44 3 -14 -1 -30 -8 -36 -8 -6 -14 -22 -14 -34 0 -12 -6 -28
-14 -34 -8 -7 -15 -20 -15 -29 -1 -60 -9 -112 -17 -124 -21 -26 -34 -74 -37
-130 -1 -35 -7 -60 -14 -63 -9 -3 -13 -26 -13 -65 0 -33 -4 -60 -8 -60 -4 0
-8 -8 -9 -17 -1 -10 -5 -31 -8 -48 -7 -30 -8 -43 -21 -190 -3 -44 -11 -86 -17
-93 -7 -9 -6 -20 3 -36 10 -20 10 -32 -5 -70 -20 -52 -15 -98 15 -150 39 -65
100 -72 142 -15 17 22 18 29 7 47 -10 17 -10 23 4 36 17 18 21 93 6 112 -6 8
-5 14 4 17 10 4 14 24 15 66 0 33 6 70 13 82 6 12 13 79 16 147 2 84 9 136 19
157 8 18 14 36 13 41 -1 5 1 16 4 24 23 55 40 110 44 143 6 45 14 47 37 5 10
-18 28 -53 42 -77 13 -25 28 -49 34 -55 5 -5 10 -22 10 -37 0 -18 6 -30 18
-33 11 -4 22 -24 30 -58 7 -29 21 -65 32 -80 11 -15 20 -36 20 -46 0 -10 6
-27 14 -37 7 -10 11 -26 9 -36 -5 -16 21 -107 53 -184 6 -16 15 -52 19 -80 4
-27 13 -61 20 -75 8 -14 17 -51 20 -83 4 -33 12 -60 19 -63 7 -3 13 -17 14
-32 3 -105 8 -132 27 -146 17 -13 18 -18 7 -36 -10 -17 -10 -24 1 -40 10 -14
12 -52 9 -152 -5 -164 -5 -368 -2 -428 3 -41 -8 -357 -16 -475 -1 -27 -3 -59
-4 -70 0 -10 -5 -24 -10 -30 -5 -6 -11 -48 -13 -93 -2 -45 -7 -85 -10 -89 -4
-3 -7 -16 -7 -28 0 -11 -5 -26 -11 -32 -9 -9 -14 -41 -17 -135 -2 -26 -7 -38
-17 -38 -8 0 -15 -7 -15 -15 0 -15 -36 -135 -51 -170 -4 -11 -20 -46 -34 -79
-14 -32 -25 -65 -25 -72 0 -7 -14 -39 -31 -70 -16 -31 -28 -62 -25 -69 4 -12
-76 -144 -96 -156 -7 -4 -6 -9 1 -13 17 -11 13 -31 -13 -57 -13 -13 -26 -34
-30 -46 -4 -14 -15 -23 -27 -23 -10 0 -19 -5 -19 -11 0 -12 -78 -110 -98 -122
-8 -5 -10 -17 -6 -29 4 -13 -1 -26 -13 -37 -10 -10 -34 -36 -53 -59 -19 -23
-40 -42 -46 -42 -19 0 -104 -104 -104 -127 0 -16 -10 -27 -32 -37 -32 -14 -98
-70 -98 -82 0 -17 -46 -61 -82 -79 -23 -11 -46 -29 -52 -40 -18 -32 -34 -45
-54 -45 -11 0 -25 -7 -33 -16 -7 -9 -32 -25 -55 -36 -23 -10 -50 -28 -60 -39
-9 -10 -24 -19 -33 -19 -29 -1 -101 -39 -101 -53 0 -9 -18 -19 -47 -26 -49
-12 -95 -29 -168 -61 -22 -10 -53 -21 -69 -25 -21 -4 -26 -9 -17 -14 16 -10
10 -13 -49 -31 -25 -7 -74 -22 -110 -34 -36 -12 -85 -23 -110 -25 -25 -1 -78
-14 -119 -27 -41 -14 -82 -22 -94 -18 -11 3 -36 2 -56 -4 -47 -14 -297 -52
-336 -52 -17 0 -36 -5 -43 -12 -7 -7 -53 -13 -119 -15 -232 -5 -335 -12 -347
-22 -7 -6 -41 -9 -80 -7 -37 3 -78 0 -91 -6 -18 -8 -31 -7 -56 6 -36 18 -99
22 -99 6 0 -7 -16 -9 -42 -6 -24 3 -73 5 -110 5 -78 1 -91 16 -20 24 65 8 141
34 179 63 17 13 41 24 52 24 12 0 31 10 43 22 13 13 27 23 33 24 5 0 15 2 22
2 6 1 13 12 15 24 2 16 12 24 37 29 50 10 174 144 217 235 19 39 34 76 34 82
0 6 6 15 14 19 24 14 46 70 40 101 -3 17 -1 32 5 36 5 4 8 13 4 21 -3 8 0 15
6 15 7 0 14 -7 17 -15 5 -12 31 -15 144 -15 100 0 139 -3 142 -12 7 -20 85 8
93 32 4 11 11 20 16 20 18 0 30 50 18 73 -16 29 -28 37 -61 37 -16 0 -28 4
-28 9 0 5 -44 8 -98 8 -56 -1 -109 3 -123 9 -13 7 -42 16 -64 22 -22 6 -72 20
-112 32 -40 12 -89 24 -110 27 -63 9 -161 60 -178 92 -15 30 -33 41 -66 41
-11 0 -23 10 -29 24 -5 14 -18 30 -30 36 -11 6 -20 15 -20 21 0 14 -40 69 -72
99 -15 14 -28 32 -30 40 -2 8 -9 19 -16 25 -7 6 -15 28 -19 50 -3 22 -10 42
-14 45 -14 9 -22 60 -10 60 20 0 132 -40 181 -65 25 -13 64 -26 86 -30 64 -11
206 -63 228 -84 12 -10 32 -22 46 -26 14 -4 41 -16 60 -26 19 -11 47 -19 62
-19 30 0 74 -17 100 -39 16 -13 66 -31 138 -48 14 -3 40 -19 58 -34 18 -16 38
-29 45 -29 6 0 81 -35 167 -77 140 -69 220 -104 274 -120 10 -3 30 -16 43 -29
14 -13 33 -24 41 -24 8 0 43 -18 78 -40 34 -22 111 -65 171 -96 59 -31 114
-61 121 -67 38 -30 213 -119 220 -112 9 8 -66 73 -153 135 -28 19 -54 40 -60
46 -20 24 -134 114 -145 114 -5 0 -10 4 -10 8 0 5 -21 21 -47 35 -27 14 -61
39 -78 54 -32 31 -93 63 -119 63 -9 0 -16 5 -16 10 0 6 -10 14 -22 19 -13 5
-40 21 -61 35 -21 14 -42 26 -47 26 -20 0 -60 24 -60 36 0 7 -15 16 -33 20
-17 3 -43 15 -56 25 -13 11 -30 19 -38 19 -8 0 -38 16 -67 35 -33 22 -71 37
-100 41 -26 4 -50 13 -53 20 -3 8 -11 14 -19 14 -8 0 -22 4 -32 9 -9 5 -39 17
-67 27 -27 9 -63 28 -78 41 -20 16 -41 23 -72 23 -30 0 -47 5 -53 16 -5 9 -25
22 -43 29 -55 21 -230 82 -284 99 -82 25 -122 41 -138 55 -9 7 -49 19 -89 26
-96 18 -118 25 -119 39 -2 21 3 51 11 61 4 6 8 36 8 69 1 32 7 65 14 73 13 16
15 16 283 -6 83 -6 196 -15 251 -20 70 -5 107 -12 117 -23 9 -8 40 -18 69 -22
60 -7 159 -29 265 -57 40 -10 86 -19 103 -19 17 0 39 -4 49 -10 10 -5 56 -16
102 -24 85 -14 116 -24 272 -83 48 -19 111 -38 140 -43 29 -4 69 -18 89 -29
43 -26 191 -81 217 -81 10 0 50 -15 87 -33 38 -19 105 -44 149 -57 44 -12 109
-36 145 -52 81 -37 286 -118 299 -118 4 0 33 -11 63 -24 30 -13 60 -21 67 -17
7 5 -4 14 -31 26 -24 11 -56 29 -73 41 -16 12 -59 37 -95 55 -36 18 -72 38
-80 45 -8 6 -49 29 -90 51 -41 21 -95 53 -120 69 -25 17 -56 35 -70 39 -14 4
-31 12 -38 18 -8 6 -23 12 -34 14 -11 2 -34 14 -52 28 -18 14 -43 25 -55 25
-26 0 -92 32 -110 54 -8 9 -23 16 -35 16 -24 0 -105 29 -151 54 -16 9 -35 16
-41 16 -6 0 -37 13 -70 30 -32 16 -101 40 -152 54 -52 14 -99 29 -105 34 -7 5
-28 12 -47 15 -83 13 -205 42 -211 49 -3 5 -32 13 -65 18 -32 5 -95 16 -139
25 -75 15 -168 30 -330 54 -56 8 -296 26 -467 35 -31 1 -36 17 -13 36 8 7 15
19 15 26 0 8 6 14 14 14 8 0 30 16 49 35 19 19 39 35 44 35 6 0 25 15 44 33
35 34 100 65 200 97 51 17 86 18 294 16 144 -2 240 -8 248 -14 6 -6 32 -17 56
-25 61 -21 91 -9 91 36 0 75 -123 150 -297 183 -96 18 -122 31 -93 49 6 4 8
10 5 15 -2 4 4 18 14 31 25 32 52 99 45 110 -7 12 15 79 27 79 5 0 9 18 9 41
0 24 10 62 24 90 20 38 23 55 16 79 -6 22 -5 34 6 44 17 17 20 121 4 131 -7 4
-7 11 -2 18 13 16 5 179 -9 188 -8 5 -8 8 0 13 18 11 13 51 -9 71 -14 13 -19
30 -18 62 0 32 -5 48 -18 59 -17 13 -11 14 68 12 68 -2 90 -7 100 -20 7 -10
35 -22 62 -28 54 -12 70 -19 138 -63 27 -17 48 -36 48 -43 0 -7 10 -14 23 -16
16 -2 21 -9 20 -26 -2 -14 8 -35 27 -55 17 -18 33 -43 37 -57 3 -14 13 -31 20
-38 8 -8 11 -22 8 -32 -3 -9 2 -23 10 -30 11 -9 14 -22 10 -37 -3 -13 0 -33 6
-44 6 -12 12 -35 15 -52 11 -89 35 -125 87 -134 30 -4 39 -1 63 26 32 36 43
118 18 128 -11 4 -12 8 -3 19 9 11 9 24 -1 53 -7 21 -10 43 -6 49 3 5 -1 16
-10 23 -9 7 -13 21 -10 35 4 13 -2 31 -14 47 -11 14 -20 32 -20 40 0 9 -4 18
-9 21 -4 3 -11 19 -14 36 -4 16 -18 40 -32 52 -14 12 -25 28 -25 35 0 7 -4 13
-9 13 -6 0 -20 18 -32 40 -15 27 -31 41 -52 46 -16 3 -43 21 -60 39 -18 19
-45 36 -62 40 -42 9 -85 26 -85 34 -1 23 -35 43 -86 52 -68 11 -388 13 -430 3
l-28 -7 25 -10 c32 -12 23 -14 -104 -26 -59 -5 -113 -14 -120 -19 -7 -5 -28
-12 -47 -15 -71 -11 -145 -29 -165 -40 -11 -6 -27 -12 -35 -13 -72 -11 -126
-26 -190 -53 -41 -18 -97 -39 -125 -47 -27 -9 -58 -24 -67 -35 -9 -11 -30 -24
-45 -29 -15 -5 -80 -27 -143 -50 -100 -36 -129 -42 -226 -47 l-111 -6 -26 29
c-15 16 -27 36 -27 44 0 9 -5 21 -10 26 -15 15 -14 52 4 220 1 12 10 29 19 39
9 9 17 25 17 35 0 10 5 22 11 25 14 9 33 56 30 78 -1 9 5 24 13 33 9 8 18 27
22 42 7 35 33 92 55 117 29 35 30 76 3 102 -14 13 -30 23 -37 23 -28 0 -57
-13 -57 -25 0 -7 -16 -23 -34 -36 -36 -24 -59 -59 -62 -93 -1 -11 -8 -24 -16
-30 -21 -15 -68 -93 -61 -100 3 -3 -5 -20 -19 -38 -32 -42 -45 -85 -53 -178
-4 -41 -11 -81 -17 -87 -6 -7 -8 -20 -4 -29 3 -8 1 -24 -5 -35 -7 -13 -7 -24
-1 -32 6 -7 15 -43 21 -81 6 -44 16 -73 26 -78 8 -5 15 -17 15 -28 0 -20 48
-60 72 -60 8 0 24 -11 36 -25 21 -24 31 -28 105 -40 36 -6 47 -18 27 -30 -6
-3 -10 -19 -10 -36 0 -18 -5 -29 -14 -29 -18 0 -27 -25 -14 -38 6 -6 6 -16 0
-28 -30 -56 -42 -98 -42 -147 0 -31 -5 -68 -11 -84 -7 -19 -7 -29 0 -31 6 -2
11 -13 11 -24 0 -12 -5 -18 -12 -15 -80 31 -97 40 -93 47 8 12 -7 19 -66 30
-30 6 -57 17 -61 24 -15 27 -114 39 -283 33 -153 -5 -196 -9 -257 -23 -33 -7
-36 6 -8 31 12 10 19 24 16 31 -2 6 8 24 24 39 23 22 28 34 25 60 -3 19 3 52
14 77 12 26 22 81 26 141 l7 98 36 16 c21 8 44 19 52 23 25 12 98 113 106 145
3 17 14 38 23 49 9 10 16 32 17 50 3 84 5 97 24 116 17 17 20 38 25 190 5 167
5 172 -20 224 -43 92 -103 97 -141 13 -20 -43 -28 -222 -11 -244 5 -7 6 -21 2
-30 -4 -10 -10 -36 -12 -58 -2 -22 -9 -45 -15 -52 -7 -9 -7 -17 2 -28 10 -13
11 -23 1 -53 -7 -20 -14 -46 -15 -56 -2 -11 -9 -22 -17 -24 -21 -7 -29 -25
-17 -39 8 -10 7 -13 -5 -13 -8 0 -22 -12 -32 -26 -16 -25 -20 -26 -81 -21 -52
4 -77 13 -134 46 -38 23 -70 46 -70 51 0 6 -16 20 -35 32 -19 13 -35 29 -35
36 0 6 -9 12 -19 12 -20 0 -61 59 -61 87 0 16 -3 21 -59 81 -36 39 -56 72 -53
88 1 7 -4 14 -13 18 -8 3 -15 14 -15 25 0 11 -4 22 -9 25 -4 3 -16 27 -26 53
-10 26 -21 50 -24 53 -4 3 -12 16 -19 30 -6 14 -16 32 -21 40 -16 27 -56 136
-64 177 -2 7 -15 25 -30 41 -26 27 -26 28 -7 40 11 7 20 19 20 27 0 9 9 34 20
56 12 23 18 48 15 60 -4 11 -2 19 4 19 6 0 11 9 11 19 0 11 9 27 21 35 12 8
18 19 14 26 -4 6 3 22 15 35 14 15 21 32 17 44 -3 13 1 21 15 25 14 3 19 10
15 20 -4 10 -1 16 9 16 12 0 15 6 10 25 -5 18 -1 28 15 37 11 7 36 45 55 83
20 39 41 75 49 81 8 6 25 39 38 75 14 37 32 68 44 74 28 15 73 69 73 90 0 9
16 31 35 49 19 19 35 39 35 46 0 7 11 21 25 32 14 11 23 23 21 27 -3 4 8 15
25 25 16 9 29 21 29 26 0 5 27 35 60 68 33 32 60 64 60 70 0 7 5 12 10 12 6 0
10 6 10 14 0 7 9 16 20 19 13 3 18 10 14 21 -5 12 0 16 19 16 28 0 57 24 101
83 16 20 50 48 76 61 52 26 83 52 93 79 4 10 18 17 34 17 33 0 65 19 45 27
-19 7 -4 23 23 23 13 0 30 7 38 15 8 8 33 17 56 21 23 4 41 9 41 13 0 4 15 14
33 22 119 59 202 103 205 111 2 4 20 8 40 8 19 0 43 7 52 15 9 8 52 24 96 36
43 11 107 33 141 49 68 32 151 50 227 50 62 0 177 19 193 32 7 6 20 8 28 4 8
-3 70 -1 138 5 67 5 190 14 272 19 160 9 130 12 490 -49 66 -12 134 -21 151
-21 19 0 34 -6 37 -15 9 -23 82 -55 126 -55 22 0 46 -6 53 -12 23 -22 82 -48
123 -54 22 -3 69 -23 105 -43 36 -21 85 -45 110 -55 68 -27 150 -65 163 -76
28 -24 103 -70 114 -70 6 0 26 -13 45 -30 58 -52 122 -99 158 -117 19 -10 36
-21 38 -25 2 -3 15 -19 29 -34 20 -22 24 -34 20 -60 -3 -19 -1 -36 4 -39 15
-10 10 -20 -13 -30 -13 -6 -24 -20 -26 -32 -2 -13 -7 -23 -11 -23 -5 0 -44
-34 -87 -75 -43 -41 -91 -79 -106 -85 -14 -7 -28 -20 -31 -30 -3 -11 -29 -30
-62 -45 -50 -23 -56 -29 -53 -53 4 -39 59 -72 118 -72 77 0 126 24 196 94 35
36 73 68 84 71 12 4 28 24 36 46 9 21 22 39 28 39 14 0 49 38 66 72 7 12 21
30 31 38 11 8 27 38 37 65 12 34 28 56 49 70 18 11 35 32 38 48 4 15 11 27 16
27 5 0 12 12 15 28 4 15 18 39 32 55 14 15 22 27 17 27 -4 0 4 11 18 24 14 13
29 37 32 53 10 44 38 93 56 98 10 3 30 35 45 71 15 36 36 69 45 75 22 11 64
82 73 122 4 15 12 27 18 27 18 0 48 31 48 50 0 10 6 20 14 23 7 3 16 21 20 40
5 29 12 37 36 42 17 4 28 11 25 15 -3 5 10 27 30 48 19 22 35 44 35 49 0 5 11
15 25 21 16 7 25 20 25 34 0 15 11 30 31 43 17 11 37 32 45 48 8 15 20 27 27
27 7 0 27 14 46 30 18 17 45 37 61 45 15 8 30 25 34 38 4 17 15 26 37 31 17 3
69 35 115 71 46 36 90 65 96 65 7 0 37 17 68 38 48 34 74 49 162 93 10 5 30 9
46 9 15 0 36 6 47 14 11 7 52 25 90 41 39 15 77 33 85 40 27 22 70 32 70 16z
m-4159 -182 c20 -16 44 -29 52 -29 9 0 51 -18 94 -41 180 -95 209 -109 230
-109 11 0 33 -13 46 -30 14 -16 35 -30 47 -30 26 0 120 -58 120 -74 1 -14 131
-95 176 -109 19 -6 42 -22 50 -36 9 -14 41 -41 72 -59 67 -39 118 -79 111 -86
-3 -3 -40 -2 -82 3 -62 7 -85 15 -115 37 -20 16 -53 37 -72 47 -19 9 -46 24
-60 32 -46 27 -155 75 -169 75 -7 0 -28 8 -45 19 -17 10 -62 28 -101 41 -38
12 -84 28 -100 35 -17 8 -62 19 -100 25 -154 23 -171 30 -184 65 -6 18 -11 37
-10 42 1 4 1 10 0 13 -2 3 -4 23 -6 45 -3 42 -19 117 -31 149 -6 16 -4 17 17
11 13 -4 40 -21 60 -36z m189 -425 c41 -10 83 -26 94 -36 20 -18 98 -48 127
-48 10 0 31 -11 46 -24 l28 -25 -45 1 c-114 3 -240 -5 -290 -18 -30 -8 -70
-14 -90 -14 l-36 0 -12 78 c-19 120 -21 115 46 109 31 -2 91 -13 132 -23z
m865 -204 c8 -13 -15 -13 -35 0 -12 8 -11 10 7 10 12 0 25 -4 28 -10z m1915
-1600 c0 -5 -2 -10 -4 -10 -3 0 -8 5 -11 10 -3 6 -1 10 4 10 6 0 11 -4 11 -10z
m-5372 -706 c5 -9 7 -25 5 -35 -3 -10 2 -28 11 -41 9 -12 16 -30 16 -40 0 -17
33 -84 51 -102 5 -6 9 -20 9 -33 0 -12 8 -27 19 -32 22 -12 35 -51 17 -51 -26
0 -129 -98 -122 -116 3 -8 -1 -17 -10 -21 -8 -3 -13 -11 -11 -17 2 -6 -4 -24
-14 -41 -10 -16 -21 -37 -25 -45 -3 -8 -10 -24 -15 -35 -5 -11 -11 -47 -13
-80 -2 -33 -9 -73 -15 -88 -6 -16 -11 -48 -11 -73 0 -24 -4 -44 -8 -44 -23 0
10 -355 38 -408 5 -10 16 -36 24 -59 15 -41 15 -43 -5 -54 -30 -16 -59 -5
-104 40 -22 22 -44 40 -50 41 -5 0 -21 16 -34 35 -23 34 -23 36 -5 49 14 11
18 25 16 65 -1 28 2 51 7 51 4 0 9 46 10 101 1 56 4 106 7 111 4 6 0 21 -7 35
-9 17 -10 26 -2 31 6 4 11 38 12 77 1 38 5 71 10 75 4 3 14 48 20 100 7 52 17
100 21 105 5 6 13 54 19 108 6 55 15 106 20 115 5 10 12 36 16 59 4 23 16 54
27 68 11 15 18 34 15 45 -3 11 1 24 8 30 7 6 15 28 19 50 7 42 19 51 34 24z
m6524 -544 c-2 -16 -10 -35 -18 -41 -8 -6 -14 -17 -14 -24 0 -7 -7 -15 -15
-19 -8 -3 -15 -10 -15 -16 0 -5 -9 -19 -20 -30 -12 -12 -18 -25 -15 -30 7 -12
-88 -100 -133 -124 -21 -10 -53 -32 -73 -47 -20 -16 -42 -29 -47 -29 -6 0 -31
-14 -56 -30 -24 -17 -51 -28 -59 -24 -8 3 -18 1 -22 -5 -3 -6 -15 -11 -26 -11
-17 0 -20 6 -18 43 0 23 -3 60 -9 82 -5 22 -8 53 -7 70 2 27 6 30 56 41 30 6
70 15 89 21 19 6 54 14 77 17 54 8 113 36 113 53 0 7 8 13 18 13 9 1 35 12 57
25 22 14 54 32 70 41 17 9 37 25 45 35 21 26 27 23 22 -11z m-3544 -77 c-5
-50 13 -133 30 -142 13 -7 14 -13 6 -21 -9 -9 -8 -19 3 -41 11 -23 12 -33 3
-44 -6 -7 -13 -58 -16 -112 -2 -54 -7 -110 -10 -125 -3 -17 -1 -28 5 -28 16 0
13 -25 -3 -39 -21 -17 -30 -69 -16 -86 9 -11 7 -18 -10 -35 -15 -15 -20 -29
-16 -45 4 -14 0 -27 -9 -35 -8 -7 -15 -20 -15 -30 0 -9 -9 -25 -20 -35 -10 -9
-19 -20 -18 -24 3 -14 -15 -82 -23 -87 -5 -3 -9 -13 -9 -23 0 -10 -15 -38 -34
-62 -30 -40 -40 -46 -111 -64 -42 -10 -87 -26 -99 -36 -11 -9 -37 -20 -56 -24
-19 -4 -51 -21 -70 -36 -19 -16 -45 -29 -58 -29 -15 0 -26 -7 -29 -20 -3 -10
-18 -25 -34 -32 -16 -7 -29 -16 -29 -20 0 -4 -16 -15 -35 -24 -20 -9 -51 -34
-69 -55 l-33 -39 -161 0 c-89 0 -162 3 -162 6 0 3 5 15 11 26 10 18 8 24 -12
39 -19 14 -21 20 -11 32 10 12 6 26 -23 76 -20 34 -42 61 -50 61 -8 0 -17 5
-21 12 -5 8 7 10 45 5 48 -6 52 -5 46 13 -4 13 0 20 14 25 11 3 37 24 58 46
21 22 52 46 69 54 32 13 74 82 74 121 0 10 8 24 19 31 18 11 26 36 38 116 3
20 9 40 14 43 13 7 11 201 -1 209 -6 4 -7 11 -4 17 10 16 -18 90 -42 113 -12
11 -24 30 -28 42 -4 13 -19 26 -32 29 -15 4 -22 10 -17 15 13 13 114 49 135
49 16 0 94 35 179 80 20 11 67 24 104 30 37 6 79 19 92 30 13 10 43 21 66 24
150 22 185 30 180 43 -4 10 9 13 53 14 33 1 70 5 84 9 49 16 62 12 58 -17z
m-2471 -148 c12 -3 25 -15 28 -26 4 -10 15 -19 25 -19 10 0 20 -7 24 -15 3 -8
16 -15 30 -15 14 0 37 -5 51 -10 24 -9 25 -12 11 -25 -18 -19 -30 -72 -31
-137 0 -27 -4 -48 -9 -48 -5 0 -6 -13 -3 -29 5 -21 2 -31 -10 -35 -12 -5 -13
-10 -5 -18 8 -8 3 -20 -19 -47 -16 -19 -29 -40 -29 -45 0 -6 -8 -36 -17 -68
-18 -60 -32 -70 -72 -48 -22 11 -257 15 -321 5 -45 -6 -46 -6 -58 27 -6 19
-12 51 -12 71 0 34 2 37 28 37 16 0 39 9 52 20 13 11 29 20 37 20 37 0 123 86
123 123 0 8 9 22 21 33 28 25 59 87 64 127 4 37 23 116 31 129 3 5 13 7 22 4
10 -2 27 -7 39 -11z m-870 -616 c26 -27 61 -57 77 -66 16 -8 42 -29 57 -45
l28 -31 -22 -28 c-11 -16 -27 -29 -34 -29 -8 0 -13 -12 -13 -28 0 -28 -23 -71
-47 -85 -7 -4 -13 -17 -13 -27 0 -10 -5 -22 -10 -25 -14 -9 -82 15 -101 36 -9
10 -50 34 -91 53 -41 20 -89 49 -107 65 -19 17 -38 32 -43 33 -15 5 44 108 63
108 10 0 24 9 31 19 15 21 145 101 165 101 6 0 33 -23 60 -51z m874 -121 c4
-7 46 -8 115 -4 286 16 393 18 474 7 93 -13 105 -17 201 -67 37 -19 72 -34 79
-34 22 0 108 -70 130 -105 11 -18 34 -38 50 -44 17 -5 30 -15 30 -20 0 -17
103 -141 117 -141 10 0 23 -27 28 -60 2 -12 74 -117 91 -131 11 -9 38 -20 62
-24 23 -4 42 -10 42 -15 0 -5 -19 -11 -42 -15 -72 -10 -138 -28 -138 -37 0 -4
-13 -8 -28 -8 -35 0 -65 -29 -52 -50 10 -17 67 -22 267 -24 72 0 135 -5 139
-9 4 -4 3 -27 -3 -50 -7 -26 -8 -46 -2 -53 14 -17 -1 -74 -20 -74 -17 0 -215
41 -291 61 -55 13 -204 6 -226 -11 -34 -29 -12 -43 106 -66 63 -13 127 -23
143 -23 29 -1 36 -15 12 -25 -8 -3 -15 -13 -15 -22 0 -18 -32 -65 -89 -128
-20 -24 -30 -41 -23 -44 21 -7 13 -20 -17 -27 -16 -3 -32 -12 -34 -20 -3 -7
-29 -21 -58 -30 -29 -10 -61 -26 -72 -35 -21 -20 -86 -32 -102 -19 -6 4 -29 4
-50 -1 -39 -9 -187 -12 -152 -3 33 9 16 20 -47 31 -75 12 -116 35 -109 60 3
12 -5 23 -21 32 -14 7 -26 18 -26 23 0 20 -43 67 -61 67 -34 0 -67 -29 -73
-66 -6 -27 -2 -41 17 -67 12 -17 30 -45 38 -61 7 -16 26 -34 42 -40 15 -6 27
-17 27 -26 0 -9 31 -30 78 -52 113 -52 227 -65 399 -43 128 16 203 38 203 60
0 13 42 35 65 35 8 0 15 4 15 9 0 5 15 18 33 28 19 12 59 61 102 126 49 73 78
109 98 116 15 5 27 17 27 25 0 21 30 35 63 29 24 -5 27 -10 27 -47 1 -60 25
-164 44 -185 9 -10 16 -21 16 -26 0 -16 50 -112 65 -125 8 -7 15 -19 15 -27 0
-7 9 -17 19 -21 18 -7 91 -105 91 -122 0 -4 14 -13 30 -19 17 -5 30 -14 30
-19 0 -5 9 -12 20 -15 12 -3 20 -14 20 -26 0 -12 4 -21 8 -21 4 0 32 -16 62
-35 30 -20 72 -40 93 -45 20 -6 56 -15 78 -21 27 -7 43 -17 46 -30 3 -10 14
-19 24 -19 17 0 19 -6 16 -46 -2 -25 -9 -50 -15 -56 -6 -6 -8 -17 -5 -24 3 -8
0 -14 -5 -14 -6 0 -20 -21 -32 -48 -45 -97 -53 -112 -62 -112 -16 0 -88 -63
-88 -77 0 -8 -15 -20 -32 -28 -18 -7 -49 -27 -68 -44 -19 -17 -60 -41 -93 -53
-32 -11 -63 -29 -70 -38 -17 -23 -89 -56 -181 -81 -44 -11 -86 -27 -94 -35
-17 -17 -144 -19 -174 -3 -12 6 -60 13 -107 16 -47 2 -113 8 -146 13 -33 6
-80 10 -105 10 -25 0 -92 16 -149 35 -58 19 -113 35 -123 35 -10 0 -26 8 -36
17 -19 19 -107 60 -157 73 -20 5 -23 8 -10 9 24 1 -70 50 -98 51 -31 0 -119
51 -124 70 -3 13 -21 24 -51 32 -25 7 -50 22 -56 33 -14 26 -27 35 -50 35 -11
0 -35 19 -54 41 -20 23 -51 48 -69 55 -18 8 -33 19 -33 24 0 5 -11 12 -24 16
-15 3 -23 11 -20 19 3 7 -5 19 -18 26 -13 6 -35 24 -50 39 -14 16 -40 31 -57
35 -23 5 -31 12 -31 28 0 23 -71 103 -133 150 -21 16 -35 32 -33 36 3 4 -17
30 -44 57 -30 29 -50 58 -50 71 0 12 -6 26 -12 30 -7 4 -24 28 -37 53 -13 25
-37 61 -52 81 -16 20 -29 44 -29 54 0 14 -51 126 -80 175 -20 35 -44 140 -46
208 -2 41 -8 80 -14 88 -9 10 -9 22 0 49 7 22 9 51 4 73 -12 61 -10 141 4 147
6 2 12 11 12 20 0 20 20 19 50 -5 14 -11 32 -20 41 -20 8 0 30 -13 48 -29 35
-31 108 -61 148 -61 18 0 23 6 23 24 0 13 -7 29 -15 36 -8 7 -15 18 -15 25 0
19 -48 61 -155 134 -108 74 -113 84 -70 131 12 14 25 37 29 51 3 14 24 46 46
70 l40 44 72 -76 c73 -76 134 -119 167 -119 26 0 49 46 33 68 -6 9 -18 31 -27
47 -8 17 -29 39 -45 49 -17 9 -38 29 -47 44 -10 15 -23 31 -30 35 -23 14 -14
26 30 38 23 7 47 16 52 19 6 4 24 8 40 9 17 1 62 7 100 14 78 13 227 10 236
-5z m-1220 -194 c13 -14 46 -37 73 -51 27 -14 75 -42 106 -64 32 -21 60 -39
64 -39 4 0 17 -10 30 -22 27 -26 43 -68 26 -68 -7 0 -9 -12 -4 -35 4 -21 2
-35 -4 -35 -17 0 -25 -49 -27 -167 -2 -91 0 -113 11 -113 17 0 17 -5 3 -29
-15 -23 -3 -90 16 -98 10 -3 13 -13 9 -29 -4 -15 -2 -24 6 -24 8 0 10 -12 5
-40 -6 -35 -4 -43 17 -60 19 -15 21 -22 12 -38 -12 -18 -3 -49 18 -63 4 -3 11
-27 15 -54 l6 -50 -34 28 c-40 32 -134 116 -152 135 -7 7 -34 35 -60 63 -26
27 -45 53 -42 59 3 5 -5 16 -19 25 -14 9 -22 23 -20 30 6 15 -25 75 -38 75 -4
0 -8 9 -8 19 0 11 -5 23 -10 26 -6 4 -8 11 -4 16 7 12 -34 99 -47 99 -5 0 -9
24 -9 54 0 30 -5 58 -10 61 -6 4 -8 16 -5 26 4 11 2 26 -4 33 -17 20 -19 94
-4 116 9 13 11 26 5 37 -9 18 -8 31 8 68 15 36 31 116 25 126 -13 20 23 7 46
-17z m2659 -914 c0 -5 -2 -10 -4 -10 -3 0 -8 5 -11 10 -3 6 -1 10 4 10 6 0 11
-4 11 -10z"/>
<path d="M4915 5503 c-49 -7 -153 -43 -165 -59 -7 -8 -19 -14 -27 -14 -50 0
-116 -106 -93 -149 15 -30 69 -27 133 5 31 16 93 34 157 45 96 16 112 16 183
3 42 -8 82 -12 87 -9 13 8 76 -20 86 -38 11 -19 99 -87 113 -87 16 0 81 -60
81 -74 0 -22 30 -74 45 -80 8 -3 15 -15 15 -26 0 -27 25 -75 47 -92 11 -8 19
-29 20 -52 4 -52 31 -97 72 -118 30 -15 37 -15 61 -3 14 7 33 21 40 30 17 20
18 111 2 127 -7 7 -12 23 -12 37 0 15 -10 45 -23 67 -58 107 -68 124 -77 124
-5 0 -13 12 -16 28 -7 29 -25 51 -124 151 -81 82 -152 128 -216 140 -27 6 -78
19 -113 30 -61 20 -184 26 -276 14z"/>
<path d="M2290 3833 c-14 -3 -34 -13 -45 -22 -11 -10 -45 -25 -76 -35 -30 -9
-72 -30 -92 -47 -38 -32 -71 -93 -63 -116 3 -7 -2 -16 -10 -21 -18 -10 -28
-58 -14 -67 5 -3 7 -36 5 -76 -5 -68 7 -118 46 -191 5 -10 9 -22 9 -28 0 -12
32 -61 64 -97 10 -12 24 -33 30 -45 7 -13 30 -29 54 -38 28 -9 42 -20 42 -32
0 -23 35 -31 109 -26 52 4 63 8 95 41 23 24 45 37 61 37 14 0 58 11 97 25 39
14 81 25 93 25 12 0 44 11 71 25 27 14 56 25 64 25 21 1 66 43 89 84 26 45 36
195 14 203 -8 3 -11 13 -7 25 3 10 1 25 -5 31 -5 7 -23 37 -38 67 -22 41 -39
59 -70 74 -23 12 -42 28 -43 36 0 16 -163 100 -215 111 -16 4 -57 14 -90 23
-56 15 -121 19 -175 9z"/>
<path d="M9583 6145 c0 -33 2 -45 4 -27 2 18 2 45 0 60 -2 15 -4 0 -4 -33z"/>
<path d="M9576 6008 c-12 -75 -11 -198 1 -203 10 -3 13 23 13 115 0 120 -5
148 -14 88z"/>
<path d="M1882 347 c-14 -16 4 -152 23 -183 7 -11 16 -43 20 -70 13 -102 4
-94 105 -94 57 0 90 4 90 11 0 9 -15 45 -56 136 -8 17 -14 36 -14 42 0 6 -14
26 -30 45 -17 19 -35 49 -42 68 -6 18 -15 39 -21 46 -12 16 -62 16 -75 -1z"/>
<path d="M2903 116 c-18 -8 -53 -18 -78 -21 -25 -4 -49 -13 -53 -21 -4 -8 -30
-18 -57 -23 -28 -5 -70 -19 -95 -30 l-45 -21 241 0 c274 0 267 -2 262 77 l-3
48 -70 2 c-43 2 -82 -3 -102 -11z"/>
</g>
</svg>
